<?xml version="1.0" standalone="no"?><!DOCTYPE svg PUBLIC "-//W3C//DTD SVG 1.1//EN" "http://www.w3.org/Graphics/SVG/1.1/DTD/svg11.dtd"><svg t="1583295648007" class="icon" viewBox="0 0 1024 1024" version="1.1" xmlns="http://www.w3.org/2000/svg" p-id="3538" xmlns:xlink="http://www.w3.org/1999/xlink" width="200" height="200"><defs><style type="text/css"></style></defs><path d="M621.975 896.565c-92.174 0-184.347-0.056-276.521 0.057-14.962 0.018-26.837-5.456-36.706-16.757C219.154 777.27 129.416 674.802 39.719 572.297c-9.09-10.388-18.226-20.737-27.267-31.167-13.929-16.071-14.062-39.792-0.082-55.783 79.14-90.527 158.343-180.999 237.522-271.492 19.931-22.779 39.901-45.526 59.759-68.369 9.066-10.429 20.361-15.698 34.163-15.697 184.514 0.005 369.029-0.041 553.543 0.027 64.82 0.024 119.368 49.55 126.162 114.304 0.52 4.951 0.806 9.951 0.807 14.928 0.041 169.374 0.035 338.748 0.034 508.122 0 65.173-45.107 118.011-109.472 128.028-6.216 0.967-12.587 1.306-18.887 1.312-91.341 0.081-182.683 0.055-274.026 0.055zM101.349 513.05c1.331 1.641 2.32 2.946 3.396 4.175 84.393 96.463 168.813 192.902 253.115 289.444 3.139 3.595 6.257 4.973 11.026 4.97 174.71-0.126 349.419-0.105 524.129-0.107 28.11 0 46.313-18.118 46.313-46.101 0.002-168.054 0.002-336.108 0-504.162 0-28.397-18.058-46.445-46.469-46.445-173.878-0.001-347.756 0.041-521.633-0.16-6.654-0.008-10.846 2.048-15.148 6.985-66.839 76.701-133.883 153.225-200.874 229.794-17.836 20.387-35.656 40.788-53.855 61.607z" p-id="3539"></path><path d="M700.585 512.935c5.521 5.353 10.112 9.693 14.581 14.156 27.549 27.513 55.079 55.045 82.599 82.587 17.545 17.558 18.099 44.312 1.3 61.297-16.926 17.113-43.917 16.66-61.65-1.063a112693.898 112693.898 0 0 1-92.105-92.141c-1.282-1.285-2.259-2.875-3.378-4.323l-2.383-1.036c-0.832 1.661-1.304 3.682-2.549 4.932-31.111 31.245-62.233 62.481-93.519 93.551-11.853 11.772-26.33 15.414-42.278 10.84-15.617-4.479-25.714-15.141-29.355-31.001-3.571-15.558 0.565-29.291 11.946-40.674 30.823-30.827 61.646-61.656 92.49-92.462 1.291-1.289 2.803-2.356 4.648-3.887-1.692-1.806-2.855-3.119-4.092-4.358-31.172-31.185-62.387-62.326-93.513-93.557-14.773-14.823-16.905-37.507-5.333-54.428 11.63-17.005 33.708-23.42 52.564-14.711 5.013 2.315 9.779 5.803 13.719 9.703 30.983 30.666 61.737 61.564 92.567 92.384 1.268 1.268 2.6 2.473 4.12 3.914 1.508-1.422 2.843-2.619 4.109-3.884 31.066-31.055 62.076-62.167 93.211-93.153 11.856-11.799 26.272-15.501 42.238-11.044 15.664 4.372 25.776 14.993 29.526 30.836 3.683 15.561-0.385 29.329-11.743 40.71-30.912 30.974-61.871 61.901-92.836 92.823-1.276 1.275-2.802 2.302-4.884 3.989z" p-id="3540"></path></svg>