<?xml version="1.0" standalone="no"?><!DOCTYPE svg PUBLIC "-//W3C//DTD SVG 1.1//EN" "http://www.w3.org/Graphics/SVG/1.1/DTD/svg11.dtd"><svg t="1583034450402" class="icon" viewBox="0 0 1024 1024" version="1.1" xmlns="http://www.w3.org/2000/svg" p-id="27283" xmlns:xlink="http://www.w3.org/1999/xlink" width="200" height="200"><defs><style type="text/css"></style></defs><path d="M230.4 953.6c-38.4 0-76.8-19.2-96-57.6-6.4-12.8-12.8-32-12.8-64V204.8c0-83.2 64-147.2 147.2-147.2h467.2c76.8 0 147.2 70.4 147.2 153.6v627.2c0 64-51.2 115.2-115.2 115.2-25.6 0-51.2-12.8-57.6-12.8l-198.4-128h-6.4l-204.8 128c-25.6 6.4-51.2 12.8-70.4 12.8z m38.4-857.6c-57.6 0-108.8 51.2-108.8 108.8v633.6c0 19.2 6.4 38.4 12.8 44.8 19.2 32 64 44.8 102.4 25.6l204.8-128c6.4-12.8 32-12.8 51.2 0l198.4 128s19.2 12.8 38.4 12.8c38.4 0 76.8-38.4 76.8-76.8V211.2c0-64-51.2-115.2-108.8-115.2H268.8z" fill="" p-id="27284"></path><path  d="M627.2 275.2H377.6c-19.2 0-32 12.8-32 32s12.8 32 32 32h249.6c19.2 0 32-12.8 32-32s-12.8-32-32-32M537.6 428.8H384c-19.2 0-32 12.8-32 32s12.8 32 32 32h153.6c19.2 0 32-12.8 32-32s-19.2-32-32-32" fill="" p-id="27285"></path></svg>