<?xml version="1.0" standalone="no"?><!DOCTYPE svg PUBLIC "-//W3C//DTD SVG 1.1//EN" "http://www.w3.org/Graphics/SVG/1.1/DTD/svg11.dtd"><svg t="1583033858392" class="icon" viewBox="0 0 1024 1024" version="1.1" xmlns="http://www.w3.org/2000/svg" p-id="3051" xmlns:xlink="http://www.w3.org/1999/xlink" width="200" height="200"><defs><style type="text/css"></style></defs><path d="M282.08 320.32c-53.984-103.136-64-169.376-30.08-198.72 55.36-48 118.24 0 157.44 0 39.264 0 85.472-89.6 195.648-89.6 110.144 0 144.32 115.232 124.256 181.568-14.272 47.232-27.776 77.248-42.72 103.712-132.32 38.72-266.944 39.776-404.544 3.04z m437.6 51.84c94.656 60.16 249.12 226.752 198.304 416.64-62.304 232.864-638.08 281.536-777.408 62.176-87.68-138.048-46.016-294.976 125.056-470.784 153.952 41.024 305.568 38.4 454.048-8z m-302.464 377.376c-26.08 0-39.136 8.416-39.136 25.28 0 16.512 13.056 24.736 39.136 24.736h61.984v21.536c0 36.416 12.576 54.624 37.76 54.624 24.768 0 37.152-18.24 37.152-54.624v-21.536h62.272c25.92 0 38.848-8.224 38.848-24.736 0-16.864-12.96-25.28-38.848-25.28h-62.272v-38.72h62.272c25.92 0 38.848-8.448 38.848-25.28 0-16.512-12.96-24.768-38.848-24.768h-34.976l51.2-78.4a161.6 161.6 0 0 0 10.88-19.648c2.272-5.216 3.424-10.944 3.424-17.216a26.528 26.528 0 0 0-8.672-20.032c-5.76-5.472-13.28-8.224-22.464-8.224a34.784 34.784 0 0 0-28.352 13.312 125.44 125.44 0 0 0-9.664 13.984c-3.296 5.472-6.4 10.72-9.344 15.744l-51.488 78.944-56.64-89.92c-7.68-12.384-14.432-21.344-20.224-26.912-5.76-5.568-13.376-8.32-22.72-8.32-9.184 0-16.672 2.816-22.464 8.448-5.76 5.664-8.672 13.12-8.672 22.464 0 5.216 1.024 9.952 3.04 14.272 2.016 4.288 6.336 11.456 12.928 21.504l50.016 80h-34.976c-26.08 0-39.136 8.256-39.136 24.736 0 16.864 13.056 25.28 39.136 25.28h61.984v38.72h-61.984z" p-id="3052"></path></svg>