<?xml version="1.0" standalone="no"?><!DOCTYPE svg PUBLIC "-//W3C//DTD SVG 1.1//EN" "http://www.w3.org/Graphics/SVG/1.1/DTD/svg11.dtd"><svg t="1583034571762" class="icon" viewBox="0 0 1024 1024" version="1.1" xmlns="http://www.w3.org/2000/svg" p-id="28023" xmlns:xlink="http://www.w3.org/1999/xlink" width="200" height="200"><defs><style type="text/css"></style></defs><path d="M931.4 131H92.6c-15.4 0-27.9 12.7-27.9 28.4s12.5 28.4 27.9 28.4h28v511c0 31.4 25 56.8 55.9 56.8H418l-69.6 130.1c-8.6 12.9-3.5 29.4 11.4 36.9 14.9 7.4 33.9 3 42.5-9.9l77.6-145.2c2.5-3.8 3.5-7.8 3.8-11.9h56.7c0.3 4.1 1.3 8.1 3.8 11.9l77.6 145.2c8.6 12.9 27.6 17.3 42.5 9.9 14.9-7.5 19.9-24 11.4-36.9L606 755.6h241.5c30.9 0 55.9-25.4 55.9-56.8v-511h28c15.4 0 28-12.7 28-28.4-0.1-15.7-12.6-28.4-28-28.4zM798.8 349.7L603.1 531.2c-12.9 12.6-25.4 17.3-37.1 9.7-5-3.3-10.8-7.7-17.8-13.5l-129.3-94.8-123.4 149.6c-11.1 13.8-24.8 18.4-38.2 10.5-13.4-7.9-18-25.4-10.2-39.1l139.8-169.7c0.2-0.4 0.7-0.7 0.9-1.1 1.2-1.8 2.6-3.4 4.2-4.8 1.7-1.7 3.5-3.1 5.5-4.2 0.5-0.3 0.7-0.7 1.2-0.9 0.5-0.2 1.1-0.2 1.6-0.5 2.3-1 4.6-1.7 7-2 13-2.6 18.8 2.7 33.9 12.4l136.5 98.8 172.7-160.1c11.8-12.9 27.6-20.5 41-12.7 13.3 7.7 22.3 25.6 7.4 40.9z" p-id="28024"></path></svg>